<svg id="visual" viewBox="0 0 960 540" width="960" height="540" xmlns="http://www.w3.org/2000/svg" xmlns:xlink="http://www.w3.org/1999/xlink" version="1.1"><rect x="0" y="0" width="960" height="540" fill="#355C7D"></rect><path d="M0 342L137 342L137 249L274 249L274 335L411 335L411 307L549 307L549 296L686 296L686 321L823 321L823 246L960 246L960 320L960 541L960 541L823 541L823 541L686 541L686 541L549 541L549 541L411 541L411 541L274 541L274 541L137 541L137 541L0 541Z" fill="#6c5b7b"></path><path d="M0 349L137 349L137 312L274 312L274 379L411 379L411 372L549 372L549 338L686 338L686 368L823 368L823 417L960 417L960 375L960 541L960 541L823 541L823 541L686 541L686 541L549 541L549 541L411 541L411 541L274 541L274 541L137 541L137 541L0 541Z" fill="#b26690"></path><path d="M0 472L137 472L137 430L274 430L274 437L411 437L411 400L549 400L549 481L686 481L686 423L823 423L823 487L960 487L960 489L960 541L960 541L823 541L823 541L686 541L686 541L549 541L549 541L411 541L411 541L274 541L274 541L137 541L137 541L0 541Z" fill="#f67280"></path></svg>